<svg xmlns="http://www.w3.org/2000/svg" width="1046.53" height="157.086" viewBox="0 0 1046.53 157.086">
  <g id="header-logo" transform="translate(-375 -18.177)">
    <path id="Path_108" data-name="Path 108" d="M1369.1,175.263c52.43,0,52.43-38.744,52.43-78.543,0-40.222,0-78.543-52.43-78.543S1316.67,56.5,1316.67,96.72C1316.67,136.519,1316.67,175.263,1369.1,175.263Zm0-22.741c-17.9,0-20.22-16.848-20.22-55.8s2.32-55.8,20.22-55.8,20.21,16.847,20.21,55.8S1386.99,152.522,1369.1,152.522ZM1294.55,20.7h-31.79V172.738h31.79ZM1137.89,172.738h51.79c54.34,0,50.75-53.488,50.75-76.863,0-47.383-7.8-75.173-49.49-75.173h-53.06V172.738Zm31.8-128.661h16.42c22.11,0,22.11,24.642,22.11,52.643,0,38.11-3.79,52.643-23.16,52.643h-15.37Zm-92.87,71.592H1046.5l14.53-65.7h.43Zm-45.27,57.069,8.63-33.694h43.38l8.42,33.694h33.48L1084.2,20.7h-41.9l-42.13,152.036ZM929,109.775h8.208c24.43,0,22.741,15.369,22.741,33.483,0,9.9-.845,20.217,3.369,29.48h31.16c-2.947-6.316-3.581-34.951-3.581-44.637,0-27.378-20.639-29.058-27.589-29.9v-.422c20.639-3.369,28.213-17.9,28.213-37.275,0-25.9-13.9-39.8-35.585-39.8H897.189V172.738h31.793V109.775Zm0-65.7h14.112c10.108,0,16.213,5.472,16.213,20.005,0,9.686-3.581,22.319-16.213,22.319H929ZM851.727,172.738h25.266v-27.79H851.727Zm-104.864,0V61.547h.422l41.479,111.181h41.9V20.7H800.985V125.989h-.423L760.129,20.7H717.172V172.738Zm-90.331-57.069H626.208l14.533-65.7h.423Zm-45.271,57.069,8.63-33.694h43.38l8.429,33.694h33.483L663.905,20.7H622L579.881,172.738Zm-30.536,0V147.472H533.141V20.7H501.348V172.738Zm-168.249,0h37.275L489.972,20.7H458.6L432.059,131.249h-.423L408.061,20.7H375Z" fill="#cdfcc5"/>
  </g>
</svg>
