<svg xmlns="http://www.w3.org/2000/svg" width="33.88" height="20" viewBox="0 0 33.88 20">
  <path id="mixcloud" d="M30.985,26.524a1.133,1.133,0,0,1-.942-1.759,9.469,9.469,0,0,0,0-10.5A1.129,1.129,0,0,1,31.912,13a11.781,11.781,0,0,1,0,13.042,1.022,1.022,0,0,1-.909.507ZM27.753,24.7a1.127,1.127,0,0,1-.932-1.744,6.056,6.056,0,0,0,1.053-3.43A6.184,6.184,0,0,0,26.822,16.1a1.107,1.107,0,0,1,.3-1.55,1.124,1.124,0,0,1,1.56.321,8.359,8.359,0,0,1,1.445,4.675,8.238,8.238,0,0,1-1.445,4.683,1.085,1.085,0,0,1-.932.507ZM22.488,14.6a8.939,8.939,0,0,0-17.353-2,6,6,0,0,0,.883,11.933h15.4A5.023,5.023,0,0,0,22.489,14.6Zm-1.076,7.692H6.017a3.752,3.752,0,1,1,2.663-6.4,1.118,1.118,0,0,0,1.588,0,1.149,1.149,0,0,0,0-1.588,6.035,6.035,0,0,0-2.773-1.571A6.686,6.686,0,0,1,20.266,15.5a6.383,6.383,0,0,1-.342,2.1,1.163,1.163,0,0,0,.723,1.445,1.045,1.045,0,0,0,.336.06,1.111,1.111,0,0,0,1.059-.761,7.633,7.633,0,0,0,.321-1.356,2.782,2.782,0,0,1-1,5.376Z" transform="translate(-0.001 -6.552)"/>
</svg>
